<?xml version="1.0" encoding="UTF-8"?>
<svg width="195px" height="42px" viewBox="0 0 195 42" version="1.1" xmlns="http://www.w3.org/2000/svg" xmlns:xlink="http://www.w3.org/1999/xlink">
    <!-- Generator: Sketch 48.2 (47327) - http://www.bohemiancoding.com/sketch -->
    <title>oasis</title>
    <desc>Created with Sketch.</desc>
    <defs></defs>
    <g id="desktop-landing" stroke="none" stroke-width="1" fill="none" fill-rule="evenodd">
        <g id="oasis">
            <path d="M76.4120741,0 L178.431592,6.66133815e-15 C179.671466,6.43357704e-15 180.837027,0.591218964 181.569446,1.59164395 L194.096614,18.7027551 C195.097994,20.0705615 195.097994,21.9294385 194.096614,23.2972449 L181.569446,40.408356 C180.837027,41.408781 179.671466,42 178.431592,42 L76.4120741,42 C75.5529644,42 74.8565185,41.3035541 74.8565185,40.4444444 C74.8565185,40.1172336 74.9597007,39.7983548 75.1513873,39.5331696 L86.9011393,23.2781872 C87.8840352,21.9184176 87.8840352,20.0815824 86.9011393,18.7218128 L75.1513873,2.46683044 C74.6481041,1.77057235 74.8045411,0.798151987 75.5007992,0.294868767 C75.7659844,0.103182242 76.0848632,9.4828608e-16 76.4120741,8.8817842e-16 Z" id="Rectangle-2" fill="#FFFFFF"></path>
            <path d="M160.249923,21.1985475 C159.665818,20.2620937 158.62581,19.6388889 157.44012,19.6388889 C155.61295,19.6388889 154.131737,21.1188365 154.131737,22.9444444 C154.131737,24.7700524 155.61295,26.25 157.44012,26.25 C158.649154,26.25 159.706714,25.6020136 160.283891,24.6346671 L163.964065,26.822014 C162.639953,29.0412206 160.213787,30.5277778 157.44012,30.5277778 C153.248378,30.5277778 149.850299,27.1326038 149.850299,22.9444444 C149.850299,18.7562851 153.248378,15.3611111 157.44012,15.3611111 C160.160232,15.3611111 162.546132,16.7908162 163.886139,18.9391515 L160.249923,21.1985475 Z M166.781437,16.3333333 L166.781437,13.8055556 L171.062874,12.4444444 L171.062874,16.3333333 L173.982036,16.3333333 L173.982036,20.4166667 L171.062874,20.4166667 L171.062874,25.8611111 C171.061581,26.5243404 171.49528,26.8484144 172.363972,26.8333333 L173.982036,26.8333333 L173.982036,30.5277778 L170.223534,30.5277778 C167.928803,30.1674476 166.781437,28.8063365 166.781437,26.4444444 L166.781437,20.4166667 L164.640719,20.4166667 L164.640719,16.1388889 L166.781437,16.3333333 Z M140.898204,30.5277778 C136.706462,30.5277778 133.308383,27.1326038 133.308383,22.9444444 C133.308383,18.7562851 136.706462,15.3611111 140.898204,15.3611111 C145.089946,15.3611111 148.293413,18.359214 148.293413,22.9444444 C148.293413,23.2987563 148.293413,23.8820896 148.293413,24.6944444 L137.784431,24.6944444 C138.352126,25.8261221 139.325317,26.4742703 140.704002,26.6388889 C142.082688,26.8035075 143.250216,26.4146186 144.206587,25.4722222 L147.709581,27.6111111 C146.562758,29.1933604 144.534983,30.5277778 140.898204,30.5277778 Z M144.011976,21.3888889 C144.011976,20.1588001 142.617893,19.0555556 140.898204,19.0555556 C139.178515,19.0555556 137.784431,20.1588001 137.784431,21.3888889 L144.011976,21.3888889 Z M123.967066,16.1388889 L128.248503,16.1388889 L128.248503,18.4722222 C128.751746,16.9166667 130.178891,16.0740741 132.52994,15.9444444 L132.52994,20.8055556 C130.407576,20.4720645 128.248503,21.5179748 128.248503,23.5277778 C128.248503,24.1749323 128.248503,26.5082657 128.248503,30.5277778 L123.967066,30.5277778 L123.967066,16.1388889 Z M117.155689,16.1388889 L121.437126,16.1388889 L121.437126,30.5277778 L117.155689,30.5277778 L117.155689,16.1388889 Z M119.296407,14.9722222 C117.89916,14.9722222 116.766467,13.8404976 116.766467,12.4444444 C116.766467,11.0483913 117.89916,9.91666667 119.296407,9.91666667 C120.693655,9.91666667 121.826347,11.0483913 121.826347,12.4444444 C121.826347,13.8404976 120.693655,14.9722222 119.296407,14.9722222 Z M105.284431,30.5277778 L97.5,30.5277778 L97.5,10.3055556 L105.284431,10.3055556 C110.873421,10.3055556 115.209581,14.8324542 115.209581,20.4166667 C115.209581,26.0008791 110.873421,30.5277778 105.284431,30.5277778 Z M105.365697,26.0833333 C108.497988,26.0833333 110.928144,24.1498409 110.928144,20.4166667 C110.928144,16.6834924 108.497988,14.75 105.365697,14.75 L101.976048,14.75 L101.976048,26.0833333 L105.365697,26.0833333 Z" id="Combined-Shape" fill="#3F51B5"></path>
            <path d="M53.8293425,16.1388889 L58.1107796,16.1388889 L58.1107796,30.5277778 L53.8293425,30.5277778 L53.8293425,16.1388889 Z M55.9700611,14.9722222 C54.5728137,14.9722222 53.4401209,13.8404976 53.4401209,12.4444444 C53.4401209,11.0483913 54.5728137,9.91666667 55.9700611,9.91666667 C57.3673084,9.91666667 58.5000012,11.0483913 58.5000012,12.4444444 C58.5000012,13.8404976 57.3673084,14.9722222 55.9700611,14.9722222 Z M28.6077844,30.5277778 C24.8459647,30.5277778 21.7964072,27.0890759 21.7964072,22.8472222 C21.7964072,18.6053685 24.8459647,15.1666667 28.6077844,15.1666667 C30.2950915,15.1666667 31.8940284,15.8583753 33.0838323,17.004169 L33.0838323,15.5555556 L37.1706587,15.5555556 L37.1706587,30.5277778 L33.0838323,30.5277778 L33.0838323,29.1354995 C31.9022345,30.2475348 30.2672054,30.5277778 28.6077844,30.5277778 Z M29.5808383,26.4444444 C31.5154885,26.4444444 33.0838323,24.8774411 33.0838323,22.9444444 C33.0838323,21.0114478 31.5154885,19.4444444 29.5808383,19.4444444 C27.6461882,19.4444444 26.0778443,21.0114478 26.0778443,22.9444444 C26.0778443,24.8774411 27.6461882,26.4444444 29.5808383,26.4444444 Z M10.1197605,30.5277778 C4.53077109,30.5277778 0,26.0008791 0,20.4166667 C0,14.8324542 4.53077109,10.3055556 10.1197605,10.3055556 C15.7087499,10.3055556 20.239521,14.8324542 20.239521,20.4166667 C20.239521,26.0008791 15.7087499,30.5277778 10.1197605,30.5277778 Z M10.1197605,26.25 C13.3441774,26.25 15.9580838,23.6383277 15.9580838,20.4166667 C15.9580838,17.1950056 13.3441774,14.5833333 10.1197605,14.5833333 C6.89534353,14.5833333 4.28143713,17.1950056 4.28143713,20.4166667 C4.28143713,23.6383277 6.89534353,26.25 10.1197605,26.25 Z M60.7185629,27.7084086 L62.8982416,25.0445292 C64.5015007,26.4401765 65.9156597,27.1336919 67.1407186,27.1250752 C68.2824098,27.1250752 68.8532554,26.6065567 68.8532554,25.5695197 C68.8532554,24.7837855 68.0229288,24.3300818 66.3622754,24.2084086 C62.8981783,23.5602604 61.1661297,21.93989 61.1661297,19.3472975 C61.5161031,16.2743204 63.3778922,14.7317246 66.751497,14.7195102 C68.8273453,14.7119944 70.7150445,15.3731102 72.4145946,16.7028578 L70.5464072,19.3278578 C69.0520136,18.5308815 67.7870436,18.1031053 66.751497,18.0445292 C65.5847455,17.9785313 64.9360429,18.4127874 64.8053892,19.3472975 C64.8053892,20.1250752 65.3243513,20.5593313 66.3622754,20.6500657 C70.6437126,21.1685843 72.7584577,22.873217 72.7065108,25.7639641 C72.6871257,30.0417419 68.502994,30.5277807 67.1407186,30.527853 C65.7784431,30.5279253 63.639242,30.3369985 60.7185629,27.7084086 Z M39.3113772,27.7084086 L41.491056,25.0445292 C43.0943151,26.4401765 44.5084741,27.1336919 45.7335329,27.1250752 C46.8752242,27.1250752 47.4460698,26.6065567 47.4460698,25.5695197 C47.4460698,24.7837855 46.6157431,24.3300818 44.9550898,24.2084086 C41.4909926,23.5602604 39.758944,21.93989 39.758944,19.3472975 C40.1089175,16.2743204 41.9707066,14.7317246 45.3443114,14.7195102 C47.4201597,14.7119944 49.3078589,15.3731102 51.007409,16.7028578 L49.1392216,19.3278578 C47.644828,18.5308815 46.3798579,18.1031053 45.3443114,18.0445292 C44.1775598,17.9785313 43.5288572,18.4127874 43.3982036,19.3472975 C43.3982036,20.1250752 43.9171657,20.5593313 44.9550898,20.6500657 C49.2365269,21.1685843 51.3512721,22.873217 51.2993252,25.7639641 C51.2799401,30.0417419 47.0958084,30.5277807 45.7335329,30.527853 C44.3712575,30.5279253 42.2320564,30.3369985 39.3113772,27.7084086 Z" fill="#FFFFFF"></path>
        </g>
    </g>
</svg>