<svg id="Layer_1" data-name="Layer 1" xmlns="http://www.w3.org/2000/svg" viewBox="0 0 124 113">
    <defs>
        <style>
            .cls-1{fill:#ff7e00;}.cls-2{fill:#dbc0b1;}.cls-3{fill:#f36f00;}.cls-4{fill:#c3ac9c;}.cls-5{fill:#161616;}.cls-6{fill:#f16f00;}.cls-7{fill:#db5a00;}.cls-8{fill:#1f3449;fill-opacity:0.8;}.cls-9{fill:#7e3a06;}
        </style>
    </defs>
    <title>icn_metamask_2</title>
    <path class="cls-1"
          d="M62,18H78.16L115,0l6.76,18.71-3,19.46,3,2.25-3.76,3,3,2.25-3.76,3,2.25,1.5-5.26,6.74L124,83.81,117.24,113,87.93,102.52l-6,3L71,107.11H53l-10.92-1.59-6-3L6.76,113,0,83.81,9.77,56.87,4.51,50.14l2.25-1.5L3,45.65,6,43.4l-3.76-3,3-2.25-3-19.46L9,0,45.84,18Z"/>
    <path class="cls-2" d="M62,82.32h4.88l3,3,18,17.21-6,3L71,107.11H53l-10.92-1.59-6-3,18-17.21,3-3Z"/>
    <polygon class="cls-3"
             points="63.88 107.11 53.01 107.11 42.09 105.52 36.07 102.52 6.76 113 0 83.81 23.3 80.82 39.08 80.07 54.11 85.31 57.12 82.32 63.88 82.32 63.88 107.11"/>
    <polygon class="cls-3"
             points="60.12 107.11 70.99 107.11 81.92 105.52 87.93 102.52 117.24 113 124 83.81 100.7 80.82 84.92 80.07 69.89 85.31 66.89 82.32 60.12 82.32 60.12 107.11"/>
    <path class="cls-4"
          d="M62,82.32h4.88l3,3s1,16.36,1.71,17,16.32.21,16.32.21l-6,3L71,107.11H53l-10.92-1.59-6-3s15.66.42,16.32-.21,1.71-17,1.71-17l3-3Z"/>
    <path class="cls-5" d="M62,95h7.16l2.23,3-1.5-12.72-3-3H57.12l-3,3L52.61,98l2.23-3Z"/>
    <polygon class="cls-6"
             points="88.68 50.14 114.23 56.87 119.49 50.14 117.24 48.64 120.99 45.65 117.99 43.4 121.75 40.41 118.74 38.17 121.75 18.71 114.98 0 78.16 17.96 70.64 34.42 67.64 80.07 70.64 72.59 84.92 69.6 84.92 77.83 95.44 58.37 88.68 50.14"/>
    <polygon class="cls-6"
             points="35.32 50.14 9.77 56.87 4.51 50.14 6.76 48.64 3.01 45.65 6.01 43.4 2.25 40.41 5.26 38.17 2.25 18.71 9.02 0 45.84 17.96 53.36 34.42 56.36 80.07 53.36 72.59 39.08 69.6 39.08 77.83 28.56 58.37 35.32 50.14"/>
    <polygon class="cls-7" points="54.86 58.37 53.36 72.59 39.08 69.6 28.56 58.37 54.86 58.37"/>
    <polygon class="cls-7" points="69.14 58.37 70.64 72.59 84.92 69.6 95.44 58.37 69.14 58.37"/>
    <polygon class="cls-8" points="75.9 64.36 70.64 72.59 86.42 69.6 75.9 64.36"/>
    <polygon class="cls-9"
             points="114.23 56.87 119.49 50.14 117.24 48.64 120.99 45.65 117.99 43.4 121.75 40.41 118.74 38.17 121.75 18.71 114.98 0 70.64 34.42 88.68 50.14 114.23 56.87"/>
    <polygon class="cls-7" points="87.93 102.52 100.7 80.82 84.92 80.07 87.93 102.52"/>
    <polygon class="cls-7" points="36.07 102.52 23.3 80.82 39.08 80.07 36.07 102.52"/>
    <polygon class="cls-8" points="48.1 64.36 53.36 72.59 37.58 69.6 48.1 64.36"/>
    <polygon class="cls-9"
             points="9.77 56.87 4.51 50.14 6.76 48.64 3.01 45.65 6.01 43.4 2.25 40.41 5.26 38.17 2.25 18.71 9.02 0 53.36 34.42 35.32 50.14 9.77 56.87"/>
</svg>