<svg id="Layer_1" data-name="Layer 1" xmlns="http://www.w3.org/2000/svg" viewBox="0 0 43 43"><defs><style>.cls-1{fill:none;stroke:#dee4f4;}.cls-2{fill:#443c3a;}</style></defs><title>od_parity2</title><circle class="cls-1" cx="21.5" cy="21.5" r="21"/><path class="cls-2" d="M33.9,19.79A5.08,5.08,0,0,1,33.39,23,6,6,0,0,1,30,25.9a6.71,6.71,0,0,1-3.16.26,10.77,10.77,0,0,1-2.71-.77l-.08,0,.09,0a10.49,10.49,0,0,0,2.63.6,5.88,5.88,0,0,0,3.43-.64,5.36,5.36,0,0,0,1.74-1.53,4.78,4.78,0,0,0,.92-2.28,4,4,0,0,0-.93-3.13,4.56,4.56,0,0,0-2.46-1.64,2.8,2.8,0,0,0-2,.22c-.29.15-.6.26-.87.43a6.18,6.18,0,0,0-1.57,1.49c-.43.56-.84,1.14-1.25,1.71-.27.39-.53.79-.79,1.19-.77,1.21-1.52,2.42-2.3,3.62a26.27,26.27,0,0,1-2.11,2.87c-.18.21-.37.4-.55.6l-.06,0,0-.06c.2-.29.41-.57.6-.86a33.77,33.77,0,0,0,1.81-3.31c.63-1.28,1.26-2.57,1.9-3.85a26.25,26.25,0,0,1,1.9-3.28,8,8,0,0,1,1.76-1.91A4.12,4.12,0,0,1,28.56,15a4.77,4.77,0,0,1,3,1.08,6.45,6.45,0,0,1,1.76,2A4.84,4.84,0,0,1,33.9,19.79ZM15.64,27.13a3.84,3.84,0,0,1-1.14.34,2.72,2.72,0,0,1-2.31-.6,1.28,1.28,0,0,1-.11-.13l.14.1a2.73,2.73,0,0,0,1.87.54,4.25,4.25,0,0,0,1.68-.45,1.33,1.33,0,0,0,.34-.25,14.61,14.61,0,0,0,1.34-1.91c.6-1,1.19-2.11,1.78-3.16s1.16-2.08,1.83-3.06a9.32,9.32,0,0,1,1.79-2,4.07,4.07,0,0,1,1.71-.85l.94-.22h.06l0,0a7.62,7.62,0,0,0-2.56,2.21A20.87,20.87,0,0,0,21.37,20c-.5.82-1,1.66-1.46,2.49-.33.56-.64,1.12-1,1.67s-.7,1.14-1.07,1.69a11.43,11.43,0,0,1-1.75,2.09,4.15,4.15,0,0,1-1.85,1,3.38,3.38,0,0,1-1.85-.18A5.07,5.07,0,0,1,10.09,27l0-.07,0-.08.07.06a4.73,4.73,0,0,0,2.12,1.44,3,3,0,0,0,2.91-.6A2,2,0,0,0,15.64,27.13Z" transform="translate(-0.5 -0.5)"/><path class="cls-2" d="M31.11,19.77a3.45,3.45,0,0,1-.26,2.09l0,.06a.27.27,0,0,1,0-.06,3.26,3.26,0,0,0-1.4-3,4.23,4.23,0,0,0-2-.87l-.11,0a.57.57,0,0,1,.09-.08,2.34,2.34,0,0,1,2.6.16,2.65,2.65,0,0,1,1.11,1.69Zm-3.19,8.36a6.88,6.88,0,0,1-2.48-.29,13.87,13.87,0,0,1-2.7-1.12l-.06-.05.08,0a12.89,12.89,0,0,0,2.81,1,6.62,6.62,0,0,0,2.52.14,5.27,5.27,0,0,0,2.39-1,5.76,5.76,0,0,0,1-1l.07-.05,0,.07a4.61,4.61,0,0,1-3.58,2.27Z" transform="translate(-0.5 -0.5)"/></svg>