<?xml version="1.0" encoding="UTF-8"?>
<svg width="100px" height="26px" viewBox="0 0 100 26" version="1.1" xmlns="http://www.w3.org/2000/svg" xmlns:xlink="http://www.w3.org/1999/xlink" style="background: #FFFFFF;">
    <!-- Generator: Sketch 49 (51002) - http://www.bohemiancoding.com/sketch -->
    <title>icon-0x copy 2</title>
    <desc>Created with Sketch.</desc>
    <defs></defs>
    <g id="icon-0x-copy-2" stroke="none" stroke-width="1" fill="none" fill-rule="evenodd">
        <path d="M64.1059073,9.64090928 L67.5662469,9.64090928 L67.5662469,21.4136366 L64.1059073,21.4136366 L64.1059073,9.64090928 Z M65.8360771,8.68636383 C64.706795,8.68636383 63.791331,7.76040729 63.791331,6.61818201 C63.791331,5.47595673 64.706795,4.55000019 65.8360771,4.55000019 C66.9653592,4.55000019 67.8808233,5.47595673 67.8808233,6.61818201 C67.8808233,7.76040729 66.9653592,8.68636383 65.8360771,8.68636383 Z M43.7213604,21.4136366 C40.6809855,21.4136366 38.2162747,18.6001532 38.2162747,15.1295456 C38.2162747,11.6589381 40.6809855,8.84545474 43.7213604,8.84545474 C45.0850744,8.84545474 46.3773658,9.41139816 47.3389882,10.3488658 L47.3389882,9.16363655 L50.6420396,9.16363655 L50.6420396,21.4136366 L47.3389882,21.4136366 L47.3389882,20.2744998 C46.3839981,21.1843469 45.0625363,21.4136366 43.7213604,21.4136366 Z M44.5078012,18.0727275 C46.0714226,18.0727275 47.3389882,16.7906338 47.3389882,15.2090911 C47.3389882,13.6275484 46.0714226,12.3454547 44.5078012,12.3454547 C42.9441798,12.3454547 41.6766143,13.6275484 41.6766143,15.2090911 C41.6766143,16.7906338 42.9441798,18.0727275 44.5078012,18.0727275 Z M28.7789849,21.4136366 C24.2618565,21.4136366 20.6000004,17.7098104 20.6000004,13.1409093 C20.6000004,8.57200817 24.2618565,4.86818201 28.7789849,4.86818201 C33.2961133,4.86818201 36.9579694,8.57200817 36.9579694,13.1409093 C36.9579694,17.7098104 33.2961133,21.4136366 28.7789849,21.4136366 Z M28.7789849,17.9136366 C31.3850205,17.9136366 33.4976298,15.7768138 33.4976298,13.1409093 C33.4976298,10.5050048 31.3850205,8.36818201 28.7789849,8.36818201 C26.1729493,8.36818201 24.06034,10.5050048 24.06034,13.1409093 C24.06034,15.7768138 26.1729493,17.9136366 28.7789849,17.9136366 Z M69.6739074,19.1068799 L71.4355655,16.9273422 C72.7313503,18.0692355 73.8743007,18.6366572 74.8644168,18.6296072 C75.7871535,18.6296072 76.2485219,18.2053648 76.2485219,17.3568799 C76.2485219,16.7140065 75.5774359,16.3427944 74.2352641,16.2432436 C71.4355143,15.7129405 70.0356394,14.387183 70.0356394,12.2659708 C70.3184947,9.75171687 71.8232283,8.48959307 74.5498404,8.47959943 C76.2275808,8.47345014 77.7532555,9.01436311 79.1268645,10.1023384 L77.6169596,12.2500656 C76.4091621,11.5979942 75.386789,11.2479955 74.5498404,11.2000695 C73.6068494,11.1460713 73.0825556,11.5013717 72.9769588,12.2659708 C72.9769588,12.9023345 73.3963939,13.2576349 74.2352641,13.3318722 C77.6956037,13.7561146 79.4047813,15.1508141 79.3627968,17.5159708 C79.3471294,21.0159708 75.9654339,21.413639 74.8644168,21.4136981 C73.7633996,21.4137572 72.0344562,21.2575444 69.6739074,19.1068799 Z M52.3722094,19.1068799 L54.1338675,16.9273422 C55.4296523,18.0692355 56.5726027,18.6366572 57.5627188,18.6296072 C58.4854555,18.6296072 58.9468239,18.2053648 58.9468239,17.3568799 C58.9468239,16.7140065 58.275738,16.3427944 56.9335661,16.2432436 C54.1338163,15.7129405 52.7339414,14.387183 52.7339414,12.2659708 C53.0167967,9.75171687 54.5215304,8.48959307 57.2481425,8.47959943 C58.9258829,8.47345014 60.4515576,9.01436311 61.8251666,10.1023384 L60.3152616,12.2500656 C59.1074641,11.5979942 58.085091,11.2479955 57.2481425,11.2000695 C56.3051515,11.1460713 55.7808576,11.5013717 55.6752608,12.2659708 C55.6752608,12.9023345 56.0946959,13.2576349 56.9335661,13.3318722 C60.3939057,13.7561146 62.1030833,15.1508141 62.0610988,17.5159708 C62.0454314,21.0159708 58.6637359,21.413639 57.5627188,21.4136981 C56.4617016,21.4137572 54.7327583,21.2575444 52.3722094,19.1068799 Z" id="oasis" fill="#3F51B5"></path>
    </g>
</svg>