<?xml version="1.0" encoding="UTF-8"?>
<svg width="100px" height="26px" viewBox="0 0 100 26" version="1.1" xmlns="http://www.w3.org/2000/svg" xmlns:xlink="http://www.w3.org/1999/xlink" style="background: #FFFFFF;">
    <!-- Generator: Sketch 49 (51002) - http://www.bohemiancoding.com/sketch -->
    <title>icon-0x</title>
    <desc>Created with Sketch.</desc>
    <defs></defs>
    <g id="icon-0x" stroke="none" stroke-width="1" fill="none" fill-rule="evenodd">
        <path d="M64.21875,14.4181818 C64.21875,15.1636364 64.1269531,15.8 63.9617188,16.3636364 C63.7964844,16.9272727 63.5394531,17.4 63.2273438,17.7818182 C62.896875,18.1636364 62.5113281,18.4545455 62.0523438,18.6363636 C61.5933594,18.8363636 61.0609375,18.9272727 60.4734375,18.9272727 C59.9042969,18.9272727 59.371875,18.8363636 58.9128906,18.6363636 C58.4539063,18.4363636 58.05,18.1636364 57.7195313,17.7818182 C57.3890625,17.4 57.1503906,16.9272727 56.9667969,16.3636364 C56.7832031,15.8 56.7097656,15.1454545 56.7097656,14.4181818 L56.7097656,11.6909091 C56.7097656,10.9454545 56.8015625,10.3090909 56.9667969,9.74545455 C57.1503906,9.18181818 57.3890625,8.70909091 57.7195313,8.32727273 C58.05,7.94545455 58.4355469,7.65454545 58.8945313,7.47272727 C59.3535156,7.27272727 59.8859375,7.18181818 60.4550781,7.18181818 C61.0425781,7.18181818 61.5566406,7.27272727 62.0339844,7.47272727 C62.4929688,7.67272727 62.896875,7.94545455 63.2273438,8.32727273 C63.5578125,8.70909091 63.7964844,9.18181818 63.9800781,9.74545455 C64.1636719,10.3090909 64.2371094,10.9636364 64.2371094,11.6909091 L64.2371094,14.4181818 L64.21875,14.4181818 Z M58.6007813,13.7090909 L62.2910156,10.9818182 C62.2542969,10.2 62.0707031,9.61818182 61.7769531,9.25454545 C61.4648438,8.87272727 61.0242188,8.69090909 60.4550781,8.69090909 C59.8308594,8.69090909 59.371875,8.90909091 59.0597656,9.34545455 C58.7476563,9.78181818 58.6007813,10.4545455 58.6007813,11.3454545 L58.6007813,13.7090909 Z M62.309375,12.4545455 L58.6191406,15.1818182 C58.7109375,16.6727273 59.3351563,17.4363636 60.4734375,17.4363636 C61.7035156,17.4363636 62.3277344,16.5454545 62.3277344,14.7636364 L62.3277344,12.4545455 L62.309375,12.4545455 Z" id="Shape" fill="#000000" fill-rule="nonzero"></path>
        <polygon id="Shape" fill="#000000" fill-rule="nonzero" points="70.1488281 12.7818182 72.2050781 9.90909091 74.3164062 9.90909091 71.2871094 14.0909091 74.4082031 18.4 72.296875 18.4 70.1671875 15.4181818 68.0558594 18.4 65.9445312 18.4 69.065625 14.0909091 66.0363281 9.90909091 68.1476562 9.90909091"></polygon>
        <path d="M31.5585938,23.2363636 L38.7554687,17.9090909 L40.7933594,19.8909091 C42.1335937,19.2909091 43.2535156,18.3090909 44.0429687,17.0727273 C44.2449219,17.3272727 44.446875,17.5818182 44.6488281,17.8363636 C45.3832031,18.7818182 46.0808594,19.7090909 46.7234375,20.6 C45.9339844,21.5272727 45.0160156,22.3272727 43.9878906,22.9818182 C41.9132812,24.2909091 39.4347656,24.9818182 36.7910156,24.8181818 C34.8816406,24.6909091 33.1007812,24.1272727 31.5585938,23.2363636 Z M27.1890625,7.10909091 L32.6234375,14.1636364 L30.6039063,16.2 C31.228125,17.5272727 32.2195313,18.6363636 33.4496094,19.4181818 C33.1925781,19.6181818 32.9355469,19.8181818 32.6785156,20.0181818 C31.7238281,20.7454545 30.7875,21.4363636 29.8878906,22.0727273 C28.9515625,21.2909091 28.14375,20.3818182 27.4828125,19.3636364 C26.1609375,17.3272727 25.4632813,14.8545455 25.6285156,12.2363636 C25.7570313,10.3636364 26.3078125,8.63636364 27.1890625,7.10909091 Z M43.565625,2.76363636 L36.2585937,7.96363636 L34.3308594,6.10909091 C32.990625,6.72727273 31.8707031,7.70909091 31.08125,8.92727273 C30.8792969,8.67272727 30.6773437,8.41818182 30.4753906,8.16363636 C29.7410156,7.21818182 29.0433594,6.29090909 28.4007812,5.4 C29.1902344,4.47272727 30.1082031,3.67272727 31.1363281,3.01818182 C33.1925781,1.70909091 35.6894531,1.01818182 38.3332031,1.18181818 C40.2425781,1.30909091 42.0234375,1.87272727 43.565625,2.76363636 Z M47.9535156,18.8363636 L42.6109375,11.8363636 L44.5570312,9.83636364 L44.5386719,9.8 C43.9144531,8.49090909 42.9230469,7.36363636 41.6746094,6.58181818 C41.9316406,6.38181818 42.1886719,6.18181818 42.4457031,5.98181818 C43.4003906,5.25454545 44.3367187,4.56363636 45.2363281,3.92727273 C46.1726562,4.70909091 46.9804687,5.61818182 47.6414062,6.63636364 C48.9632812,8.69090909 49.6609375,11.1454545 49.4957031,13.7636364 C49.3671875,15.6181818 48.8164062,17.3272727 47.9535156,18.8363636 Z" id="Combined-Shape" fill="#000000" fill-rule="nonzero"></path>
    </g>
</svg>