<?xml version="1.0" encoding="UTF-8"?>
<svg width="100px" height="26px" viewBox="0 0 100 26" version="1.1" xmlns="http://www.w3.org/2000/svg" xmlns:xlink="http://www.w3.org/1999/xlink" style="background: #FFFFFF;">
    <!-- Generator: Sketch 49 (51002) - http://www.bohemiancoding.com/sketch -->
    <title>icon-0x copy</title>
    <desc>Created with Sketch.</desc>
    <defs></defs>
    <g id="icon-0x-copy" stroke="none" stroke-width="1" fill="none" fill-rule="evenodd">
        <path d="M6.156,17.976 L12.22,17.976 L12.22,19 L5.004,19 L5.004,7.672 L12.028,7.672 L12.028,8.696 L6.156,8.696 L6.156,12.6 L11.644,12.6 L11.644,13.608 L6.156,13.608 L6.156,17.976 Z M19.388,12.424 L17.276,12.424 L17.276,16.792 C17.276,17.0693347 17.3026664,17.2986658 17.356,17.48 C17.4093336,17.6613342 17.4866662,17.8026662 17.588,17.904 C17.6893339,18.0053338 17.8093327,18.0746665 17.948,18.112 C18.0866674,18.1493335 18.2359992,18.168 18.396,18.168 C18.5453341,18.168 18.7026659,18.1466669 18.868,18.104 C19.0333342,18.0613331 19.1906659,18.002667 19.34,17.928 L19.388,18.872 C19.1959991,18.946667 18.9960011,19.0026665 18.788,19.04 C18.579999,19.0773335 18.3533346,19.096 18.108,19.096 C17.9053323,19.096 17.6920011,19.0693336 17.468,19.016 C17.2439989,18.9626664 17.036001,18.8613341 16.844,18.712 C16.6519991,18.5626659 16.4946673,18.3600013 16.372,18.104 C16.2493327,17.8479987 16.188,17.5120021 16.188,17.096 L16.188,12.424 L14.636,12.424 L14.636,11.512 L16.188,11.512 L16.188,9.4 L17.276,9.4 L17.276,11.512 L19.388,11.512 L19.388,12.424 Z M23.836,12.744 C24.0386677,12.3066645 24.3746644,11.9600013 24.844,11.704 C25.3133357,11.4479987 25.814664,11.32 26.348,11.32 C27.2973381,11.32 28.009331,11.6026638 28.484,12.168 C28.9586691,12.7333362 29.196,13.4799954 29.196,14.408 L29.196,19 L28.108,19 L28.108,14.856 C28.108,14.4613314 28.0760004,14.1040016 28.012,13.784 C27.9479997,13.4639984 27.8386675,13.1893345 27.684,12.96 C27.5293326,12.7306655 27.3213347,12.5520006 27.06,12.424 C26.7986654,12.2959994 26.4706687,12.232 26.076,12.232 C25.7879986,12.232 25.5080014,12.2906661 25.236,12.408 C24.9639987,12.5253339 24.7213344,12.7039988 24.508,12.944 C24.2946656,13.1840012 24.1240007,13.4879982 23.996,13.856 C23.8679994,14.2240018 23.804,14.6586642 23.804,15.16 L23.804,19 L22.716,19 L22.716,6.904 L23.804,6.904 L23.804,12.744 L23.836,12.744 Z M39.3240001,14.68 C39.2919999,13.9759965 39.0653355,13.3920023 38.6440001,12.928 C38.2226646,12.4639977 37.6226706,12.232 36.8440001,12.232 C36.4813316,12.232 36.145335,12.298666 35.8360001,12.432 C35.5266652,12.565334 35.2546679,12.7466655 35.0200001,12.976 C34.7853322,13.2053345 34.5986674,13.4666652 34.4600001,13.76 C34.3213327,14.0533348 34.2413335,14.3599984 34.2200001,14.68 L39.3240001,14.68 Z M40.4280001,15.032 L40.4280001,15.272 C40.4280001,15.3573338 40.4226668,15.4479995 40.4120001,15.544 L34.2040001,15.544 C34.2146668,15.9173352 34.2893327,16.2693317 34.4280001,16.6 C34.5666674,16.9306683 34.7586655,17.2186654 35.0040001,17.464 C35.2493346,17.7093346 35.5373318,17.9039993 35.8680001,18.048 C36.1986684,18.1920007 36.5559982,18.264 36.9400001,18.264 C37.5053362,18.264 37.9933314,18.1333346 38.4040001,17.872 C38.8146688,17.6106654 39.1266657,17.309335 39.3400001,16.968 L40.1560001,17.608 C39.7079978,18.1733362 39.2146694,18.5786654 38.6760001,18.824 C38.1373307,19.0693346 37.5586698,19.192 36.9400001,19.192 C36.3853306,19.192 35.8706691,19.0933343 35.3960001,18.896 C34.921331,18.6986657 34.5133351,18.4240018 34.1720001,18.072 C33.830665,17.7199982 33.5613344,17.3040024 33.3640001,16.824 C33.1666658,16.3439976 33.0680001,15.8213362 33.0680001,15.256 C33.0680001,14.6906638 33.1639991,14.1680024 33.3560001,13.688 C33.548001,13.2079976 33.814665,12.7920018 34.1560001,12.44 C34.4973351,12.0879982 34.8973311,11.8133343 35.3560001,11.616 C35.814669,11.4186657 36.3106641,11.32 36.8440001,11.32 C37.4306697,11.32 37.9479978,11.4186657 38.3960001,11.616 C38.8440023,11.8133343 39.2173319,12.0799983 39.5160001,12.416 C39.8146682,12.7520017 40.0413326,13.1439978 40.1960001,13.592 C40.3506675,14.0400022 40.4280001,14.5199974 40.4280001,15.032 Z M44.3640001,13.16 C44.3640001,12.9573323 44.3586668,12.6960016 44.3480001,12.376 C44.3373334,12.0559984 44.3213335,11.7680013 44.3000001,11.512 L45.3400001,11.512 C45.3613335,11.7146677 45.3773334,11.9386654 45.3880001,12.184 C45.3986668,12.4293346 45.4040001,12.6319992 45.4040001,12.792 L45.4360001,12.792 C45.6493345,12.3546645 45.9693313,12.0000014 46.3960001,11.728 C46.8226689,11.4559986 47.3026641,11.32 47.8360001,11.32 C47.9746675,11.32 48.0999995,11.3253333 48.2120001,11.336 C48.3240007,11.3466667 48.4386662,11.3679998 48.5560001,11.4 L48.4120001,12.424 C48.3479998,12.4026666 48.2413342,12.3813334 48.0920001,12.36 C47.942666,12.3386666 47.7933342,12.328 47.6440001,12.328 C47.3559987,12.328 47.0786681,12.3813328 46.8120001,12.488 C46.5453321,12.5946672 46.3133344,12.7626655 46.1160001,12.992 C45.9186658,13.2213345 45.7586674,13.5146649 45.6360001,13.872 C45.5133328,14.2293351 45.4520001,14.6586642 45.4520001,15.16 L45.4520001,19 L44.3640001,19 L44.3640001,13.16 Z" id="Ether" fill="#000000"></path>
        <path d="M51.4119999,7.672 L55.4279999,7.672 C56.1640036,7.672 56.9053295,7.76799904 57.6519999,7.96 C58.3986703,8.15200096 59.0706636,8.46933112 59.6679999,8.912 C60.2653362,9.35466888 60.7506647,9.9359964 61.1239999,10.656 C61.4973351,11.3760036 61.6839999,12.269328 61.6839999,13.336 C61.6839999,14.328005 61.4973351,15.1813298 61.1239999,15.896 C60.7506647,16.6106702 60.2653362,17.197331 59.6679999,17.656 C59.0706636,18.114669 58.3986703,18.4533322 57.6519999,18.672 C56.9053295,18.8906678 56.1640036,19 55.4279999,19 L51.4119999,19 L51.4119999,7.672 Z M55.1079999,17.24 C55.6306692,17.24 56.1533306,17.1786673 56.6759999,17.056 C57.1986692,16.9333327 57.6706645,16.7253348 58.0919999,16.432 C58.5133353,16.1386652 58.8573319,15.7413358 59.1239999,15.24 C59.3906679,14.7386642 59.5239999,14.1040038 59.5239999,13.336 C59.5239999,12.5253293 59.3906679,11.8640026 59.1239999,11.352 C58.8573319,10.8399974 58.5133353,10.4400014 58.0919999,10.152 C57.6706645,9.86399856 57.1986692,9.6666672 56.6759999,9.56 C56.1533306,9.4533328 55.6306692,9.4 55.1079999,9.4 L53.4279999,9.4 L53.4279999,17.24 L55.1079999,17.24 Z M70.5479999,14.392 C70.5479999,14.1466654 70.5133336,13.9120011 70.4439999,13.688 C70.3746662,13.4639989 70.265334,13.2666675 70.1159999,13.096 C69.9666658,12.9253325 69.7773344,12.7893338 69.5479999,12.688 C69.3186654,12.5866662 69.0493348,12.536 68.7399999,12.536 C68.163997,12.536 67.6760019,12.7093316 67.2759999,13.056 C66.8759979,13.4026684 66.6546668,13.8479973 66.6119999,14.392 L70.5479999,14.392 Z M72.4679999,15.256 L72.4679999,15.512 C72.4679999,15.5973338 72.4626666,15.6826662 72.4519999,15.768 L66.6119999,15.768 C66.6333334,16.0453347 66.7053326,16.2986655 66.8279999,16.528 C66.9506672,16.7573345 67.1133322,16.9546658 67.3159999,17.12 C67.5186676,17.2853342 67.7479986,17.4159995 68.0039999,17.512 C68.2600012,17.6080005 68.5266652,17.656 68.8039999,17.656 C69.2840023,17.656 69.6893316,17.5680009 70.0199999,17.392 C70.3506682,17.2159991 70.6226655,16.9733349 70.8359999,16.664 L72.1159999,17.688 C71.3586628,18.7120051 70.2600071,19.224 68.8199999,19.224 C68.2226636,19.224 67.6733358,19.1306676 67.1719999,18.944 C66.6706641,18.7573324 66.2360018,18.493335 65.8679999,18.152 C65.4999981,17.810665 65.212001,17.3920025 65.0039999,16.896 C64.7959989,16.3999975 64.6919999,15.8373365 64.6919999,15.208 C64.6919999,14.5893302 64.7959989,14.0266692 65.0039999,13.52 C65.212001,13.0133308 65.4973314,12.5813351 65.8599999,12.224 C66.2226684,11.8666649 66.6519974,11.5893343 67.1479999,11.392 C67.6440024,11.1946657 68.179997,11.096 68.7559999,11.096 C69.2893359,11.096 69.7826643,11.1839991 70.2359999,11.36 C70.6893355,11.5360009 71.0813316,11.7973316 71.4119999,12.144 C71.7426682,12.4906684 72.0013323,12.9226641 72.1879999,13.44 C72.3746675,13.9573359 72.4679999,14.5626632 72.4679999,15.256 Z M75.956,6.904 L77.876,6.904 L77.876,19 L75.956,19 L75.956,6.904 Z M80.708,12.856 L80.708,11.32 L82.052,11.32 L82.052,9.096 L83.94,9.096 L83.94,11.32 L85.86,11.32 L85.86,12.856 L83.94,12.856 L83.94,16.424 C83.94,16.765335 84.0013327,17.0479989 84.124,17.272 C84.2466673,17.4960011 84.5213312,17.608 84.948,17.608 C85.0760006,17.608 85.2146659,17.5946668 85.364,17.568 C85.5133341,17.5413332 85.6466661,17.5013336 85.764,17.448 L85.828,18.952 C85.6573325,19.0160003 85.4546678,19.0666665 85.22,19.104 C84.9853321,19.1413335 84.7613344,19.16 84.548,19.16 C84.0359974,19.16 83.6200016,19.0880007 83.3,18.944 C82.9799984,18.7999993 82.7266676,18.6026679 82.54,18.352 C82.3533324,18.1013321 82.2253337,17.813335 82.156,17.488 C82.0866663,17.162665 82.052,16.8133352 82.052,16.44 L82.052,12.856 L80.708,12.856 Z M93.62,18.024 L93.572,18.024 C93.379999,18.365335 93.0706688,18.6453322 92.644,18.864 C92.2173312,19.0826678 91.7320027,19.192 91.188,19.192 C90.8786651,19.192 90.5560017,19.1520004 90.22,19.072 C89.8839983,18.9919996 89.5746681,18.8586676 89.292,18.672 C89.0093319,18.4853324 88.7746676,18.2400015 88.588,17.936 C88.4013324,17.6319985 88.308,17.2560022 88.308,16.808 C88.308,16.2319971 88.470665,15.773335 88.796,15.432 C89.121335,15.090665 89.5399974,14.8293342 90.052,14.648 C90.5640026,14.4666658 91.1319969,14.346667 91.756,14.288 C92.3800031,14.229333 92.9906637,14.2 93.588,14.2 L93.588,14.008 C93.588,13.5279976 93.4146684,13.1733345 93.068,12.944 C92.7213316,12.7146655 92.3080024,12.6 91.828,12.6 C91.4226646,12.6 91.0333352,12.6853325 90.66,12.856 C90.2866648,13.0266675 89.9773346,13.2346654 89.732,13.48 L88.74,12.312 C89.1773355,11.9066646 89.6813305,11.6026677 90.252,11.4 C90.8226695,11.1973323 91.4013304,11.096 91.988,11.096 C92.6706701,11.096 93.2333311,11.191999 93.676,11.384 C94.1186689,11.576001 94.4679987,11.8266651 94.724,12.136 C94.9800013,12.4453349 95.1586662,12.7919981 95.26,13.176 C95.3613338,13.5600019 95.412,13.9439981 95.412,14.328 L95.412,19 L93.62,19 L93.62,18.024 Z M93.588,15.496 L93.156,15.496 C92.8466651,15.496 92.521335,15.5093332 92.18,15.536 C91.838665,15.5626668 91.5240014,15.6213329 91.236,15.712 C90.9479986,15.8026671 90.708001,15.9306658 90.516,16.096 C90.323999,16.2613342 90.228,16.4879986 90.228,16.776 C90.228,16.9573342 90.2679996,17.1093327 90.348,17.232 C90.4280004,17.3546673 90.5319994,17.453333 90.66,17.528 C90.7880006,17.602667 90.9319992,17.6559998 91.092,17.688 C91.2520008,17.7200002 91.4119992,17.736 91.572,17.736 C92.2333366,17.736 92.734665,17.5600018 93.076,17.208 C93.417335,16.8559982 93.588,16.376003 93.588,15.768 L93.588,15.496 Z" id="Delta" fill="#0066CC" opacity="0.8"></path>
    </g>
</svg>